<svg width="17" height="17" viewBox="0 0 17 17" fill="none" xmlns="http://www.w3.org/2000/svg">
<rect y="0.833336" width="16.56" height="15.3333" rx="7.66667" fill="#DD3E3E"/>
<path d="M11.408 5.12667H4.53867C4.06641 5.12667 3.6843 5.50617 3.6843 5.97L3.68001 11.03C3.68001 11.4938 4.06641 11.8733 4.53867 11.8733H11.408C11.8803 11.8733 12.2667 11.4938 12.2667 11.03V5.97C12.2667 5.50617 11.8803 5.12667 11.408 5.12667ZM10.9787 11.03H4.96801C4.73187 11.03 4.53867 10.8403 4.53867 10.6083V6.81334L7.51825 8.64337C7.79731 8.81625 8.14937 8.81625 8.42843 8.64337L11.408 6.81334V10.6083C11.408 10.8403 11.2148 11.03 10.9787 11.03ZM7.97334 8.07834L4.53867 5.97H11.408L7.97334 8.07834Z" fill="white"/>
</svg>
