<svg width="17" height="15" viewBox="0 0 17 15" fill="none" xmlns="http://www.w3.org/2000/svg">
<rect width="16.2" height="15" rx="7.5" fill="#DD3E3E"/>
<path d="M11.9494 9.08702L11.1993 8.33697C10.9758 8.11517 10.674 7.99013 10.359 7.98879C10.0441 7.98745 9.74128 8.10992 9.51582 8.32981C9.39551 8.4508 9.2368 8.52608 9.06699 8.54269C8.89718 8.55931 8.72689 8.51622 8.58541 8.42084C8.02703 8.04818 7.54734 7.56941 7.17361 7.01175C7.07991 6.8687 7.03838 6.69772 7.05602 6.52763C7.07365 6.35753 7.14938 6.19871 7.27044 6.07793C7.48833 5.85225 7.60922 5.55025 7.60724 5.23656C7.60527 4.92287 7.48058 4.62242 7.25987 4.39951L6.50982 3.64945C6.28526 3.42566 5.98116 3.3 5.66414 3.3C5.34711 3.3 5.04301 3.42566 4.81845 3.64945L4.60264 3.8656C3.47757 4.99069 3.56178 7.3561 5.90262 9.69559C7.31408 11.1074 8.73474 11.6986 9.88675 11.6986C10.2259 11.7099 10.5638 11.6536 10.881 11.5329C11.1981 11.4123 11.488 11.2297 11.7339 10.9959L11.9501 10.7798C12.1743 10.5551 12.3001 10.2506 12.3 9.93325C12.2999 9.61586 12.1738 9.3115 11.9494 9.08702ZM11.4673 10.2977L11.2512 10.5138C10.3647 11.4003 8.40813 11.2383 6.38401 9.21385C4.3599 7.18938 4.19762 5.23139 5.08404 4.34496L5.29849 4.12914C5.39504 4.03294 5.52579 3.97892 5.66209 3.97892C5.79839 3.97892 5.92914 4.03294 6.02569 4.12914L6.77574 4.8792C6.87055 4.97448 6.92436 5.10303 6.92569 5.23743C6.92703 5.37183 6.87579 5.50143 6.7829 5.59857C6.55253 5.83042 6.40882 6.1344 6.37587 6.45957C6.34291 6.78475 6.4227 7.11138 6.60187 7.38473C7.02652 8.02021 7.57259 8.56547 8.20868 8.98917C8.48122 9.16837 8.80699 9.24864 9.13157 9.21656C9.45616 9.18448 9.75992 9.04199 9.9921 8.81291C10.0891 8.71892 10.219 8.66674 10.3541 8.66757C10.4891 8.66839 10.6184 8.72217 10.7142 8.81734L11.4642 9.5674C11.5126 9.61504 11.551 9.67177 11.5774 9.73433C11.6037 9.79689 11.6174 9.86403 11.6177 9.9319C11.618 9.99978 11.6048 10.067 11.579 10.1298C11.5532 10.1926 11.5153 10.2496 11.4673 10.2977Z" fill="white"/>
</svg>
