<svg width="17" height="15" viewBox="0 0 17 15" fill="none" xmlns="http://www.w3.org/2000/svg">
<rect width="16.2" height="15" rx="7.5" fill="#DD3E3E"/>
<path d="M7.8 2.4C5.15323 2.4 3 4.55323 3 7.2C3 9.84677 5.15323 12 7.8 12C10.4468 12 12.6 9.84678 12.6 7.2C12.6 4.55323 10.4468 2.4 7.8 2.4ZM9.86023 8.16827C9.88679 7.84888 9.90136 7.52446 9.90136 7.2C9.90136 6.87554 9.88679 6.55112 9.86023 6.23173C11.0425 6.48913 11.671 6.9306 11.671 7.2C11.671 7.4694 11.0425 7.91088 9.86023 8.16827ZM7.8 11.071C7.5306 11.071 7.08913 10.4425 6.83173 9.26023C7.15112 9.28679 7.47554 9.30136 7.8 9.30136C8.12446 9.30136 8.44888 9.28679 8.76827 9.26023C8.51087 10.4425 8.0694 11.071 7.8 11.071ZM7.8 8.37233C7.39735 8.37233 7.02751 8.35061 6.68464 8.31536C6.64939 7.9725 6.62767 7.60265 6.62767 7.2C6.62767 6.79735 6.64939 6.42751 6.68464 6.08464C7.02751 6.04939 7.39735 6.02767 7.8 6.02767C8.20265 6.02767 8.57249 6.04939 8.91536 6.08464C8.95061 6.42751 8.97233 6.79735 8.97233 7.2C8.97233 7.60265 8.95061 7.9725 8.91536 8.31536C8.57249 8.35061 8.20265 8.37233 7.8 8.37233ZM3.92903 7.2C3.92903 6.9306 4.55753 6.48913 5.73977 6.23173C5.71321 6.55112 5.69864 6.87554 5.69864 7.2C5.69864 7.52446 5.71321 7.84888 5.73977 8.16827C4.55753 7.91088 3.92903 7.4694 3.92903 7.2ZM7.8 3.32903C8.0694 3.32903 8.51087 3.95754 8.76827 5.13977C8.44888 5.11321 8.12446 5.09864 7.8 5.09864C7.47554 5.09864 7.15112 5.11322 6.83173 5.13977C7.08913 3.95754 7.5306 3.32903 7.8 3.32903ZM11.3904 5.76039C10.9254 5.54059 10.3551 5.37602 9.73463 5.26537C9.62398 4.6449 9.45941 4.07459 9.23961 3.6096C10.2171 4.00299 10.997 4.78291 11.3904 5.76039ZM6.36039 3.60962C6.14059 4.07461 5.97602 4.64492 5.86537 5.26537C5.24492 5.37602 4.67461 5.54055 4.20962 5.76037C4.60301 4.78289 5.38293 4.00301 6.36039 3.60962ZM4.20964 8.63963C4.67463 8.85945 5.24492 9.02399 5.86537 9.13463C5.97602 9.75508 6.14055 10.3254 6.36037 10.7904C5.38293 10.397 4.60303 9.61707 4.20964 8.63963ZM9.23963 10.7904C9.45945 10.3254 9.62398 9.75508 9.73463 9.13463C10.3551 9.02399 10.9254 8.85941 11.3904 8.63961C10.997 9.61707 10.2171 10.397 9.23963 10.7904Z" fill="white"/>
</svg>
